<?xml version="1.0" encoding="UTF-8"?><svg id="_レイヤー_2" xmlns="http://www.w3.org/2000/svg" viewBox="0 0 280.89 90.19"><defs><style>.cls-1{fill:#400506;stroke-width:0px;}</style></defs><g id="_レイヤー_1-2"><path class="cls-1" d="m23.4,11.25v67.69h43.14v11.25H0v-11.25h9.76V11.25H0V0h33.22v11.25h-9.82Z"/><path class="cls-1" d="m93.83,47.88v31.3h10.53v11.01h-22.92v-41.53c0-3.95-.57-6.78-1.71-8.5-1.14-1.71-3-2.57-5.6-2.57-5.51,0-11.69,2.71-18.55,8.14v33.45h10.83v11.01h-34.11v-11.01h11.07v-40.82h-11.07v-11.07h23.28v7.6c7.7-5.63,14.94-8.44,21.72-8.44,5.63,0,9.78,1.74,12.48,5.21,2.69,3.47,4.04,8.88,4.04,16.22Z"/><path class="cls-1" d="m155.24,26.33v-15.08h-33.81v26.75h29.14v11.25h-29.14v29.68h11.49v11.25h-42.25v-11.25h17.12V11.25h-11.37V0h69.96v26.33h-11.13Z"/><path class="cls-1" d="m217.02,57.7c0,5.97-1.42,11.43-4.27,16.39-2.85,4.96-6.73,8.88-11.65,11.76-4.92,2.89-10.36,4.33-16.33,4.33s-11.73-1.44-16.68-4.33-8.81-6.81-11.56-11.76c-2.75-4.96-4.13-10.42-4.13-16.39s1.38-11.82,4.13-16.74,6.59-8.77,11.5-11.56c4.92-2.79,10.5-4.18,16.74-4.18s11.53,1.47,16.45,4.42c4.92,2.95,8.78,6.9,11.59,11.85,2.81,4.96,4.21,10.36,4.21,16.21Zm-32.25,20.72c3.59,0,6.89-.94,9.89-2.81,3-1.87,5.35-4.39,7.02-7.55,1.68-3.16,2.52-6.61,2.52-10.36s-.84-7.08-2.52-10.24c-1.68-3.16-4.02-5.71-7.02-7.64s-6.34-2.9-10.01-2.9-6.89.95-9.89,2.84c-3,1.89-5.37,4.44-7.08,7.64-1.72,3.2-2.57,6.63-2.57,10.3s.86,7.1,2.57,10.3c1.72,3.2,4.1,5.74,7.14,7.61,3.04,1.87,6.36,2.81,9.95,2.81Z"/><path class="cls-1" d="m235.65,38.36l11.37,12.39,10.59-12.39h-6.4v-11.07h29.68v11.07h-10.41l-16.58,18.85,19.99,21.96h7v11.01h-29.68v-11.01h8.08l-12.51-14.24-12.33,14.24h8.08v11.01h-30.4v-11.01h9.16l18.91-21.25-17.89-19.57h-8.62v-11.07h29.56v11.07h-7.6Z"/></g></svg>