<?xml version="1.0" encoding="UTF-8"?><svg id="_レイヤー_2" xmlns="http://www.w3.org/2000/svg" viewBox="0 0 389.39 122.25"><defs><style>.cls-1{fill:#f4d6d6;}.cls-1,.cls-2,.cls-3,.cls-4,.cls-5,.cls-6{stroke-width:0px;}.cls-2{fill:#f7d8d3;}.cls-3{fill:#400506;}.cls-4{fill:#a53e41;}.cls-5{fill:#f2d4d4;}.cls-6{fill:#f3dadb;}.cls-7{fill:none;stroke:#400506;stroke-linecap:round;stroke-linejoin:round;stroke-width:3px;}</style></defs><g id="_レイヤー_1-2"><path class="cls-3" d="m131.9,11.25v67.69h43.14v11.25h-66.54v-11.25h9.76V11.25h-9.76V0h33.22v11.25h-9.82Z"/><path class="cls-3" d="m202.33,47.88v31.3h10.53v11.01h-22.92v-41.53c0-3.95-.57-6.78-1.71-8.5-1.14-1.71-3-2.57-5.6-2.57-5.51,0-11.69,2.71-18.55,8.14v33.45h10.83v11.01h-34.11v-11.01h11.07v-40.82h-11.07v-11.07h23.28v7.6c7.7-5.63,14.94-8.44,21.72-8.44,5.63,0,9.78,1.74,12.48,5.21,2.69,3.47,4.04,8.88,4.04,16.22Z"/><path class="cls-3" d="m263.74,26.33v-15.08h-33.81v26.75h29.14v11.25h-29.14v29.68h11.49v11.25h-42.25v-11.25h17.12V11.25h-11.37V0h69.96v26.33h-11.13Z"/><path class="cls-3" d="m325.52,57.7c0,5.97-1.42,11.43-4.27,16.39-2.85,4.96-6.73,8.88-11.65,11.76-4.92,2.89-10.36,4.33-16.33,4.33s-11.73-1.44-16.68-4.33c-4.96-2.89-8.81-6.81-11.56-11.76-2.75-4.96-4.13-10.42-4.13-16.39s1.38-11.82,4.13-16.74,6.59-8.77,11.5-11.56c4.92-2.79,10.5-4.18,16.74-4.18s11.53,1.47,16.45,4.42c4.92,2.95,8.78,6.9,11.59,11.85,2.81,4.96,4.21,10.36,4.21,16.21Zm-32.25,20.72c3.59,0,6.89-.94,9.89-2.81,3-1.87,5.35-4.39,7.02-7.55,1.68-3.16,2.52-6.61,2.52-10.36s-.84-7.08-2.52-10.24c-1.68-3.16-4.02-5.71-7.02-7.64s-6.34-2.9-10.01-2.9-6.89.95-9.89,2.84c-3,1.89-5.37,4.44-7.08,7.64-1.72,3.2-2.57,6.63-2.57,10.3s.86,7.1,2.57,10.3c1.72,3.2,4.1,5.74,7.14,7.61,3.04,1.87,6.36,2.81,9.95,2.81Z"/><path class="cls-3" d="m344.15,38.36l11.37,12.39,10.59-12.39h-6.4v-11.07h29.68v11.07h-10.41l-16.58,18.85,19.99,21.96h7v11.01h-29.68v-11.01h8.08l-12.51-14.24-12.33,14.24h8.08v11.01h-30.4v-11.01h9.16l18.91-21.25-17.89-19.57h-8.62v-11.07h29.56v11.07h-7.6Z"/><path class="cls-3" d="m119.78,117.25c-1.15-1.37-1.85-2.1-2.9-2.98-.98,1.5-2.21,2.83-3.89,4.25-1.4,1.17-1.96,1.58-4.04,2.88-.35-.69-.94-1.4-1.46-1.77,3.5-2.12,5.89-4.27,7.52-6.69-.15-.08-.23-.12-.48-.29-1.15-.73-1.44-.88-3.46-1.81l1.1-1.87c1.06.38,2.71,1.21,4,2,.9-1.62,1.54-3.1,1.98-4.6q.5-1.73.58-2.08l2.12.9c.17.06.27.17.27.29,0,.15-.12.27-.44.37-1.42,4.17-1.58,4.56-2.58,6.42,1.4,1.04,2.23,1.83,3.39,3.15l-1.73,1.85Z"/><path class="cls-3" d="m133.55,117.19c0,.71.19.79,1.62.79,1.75,0,3-.06,4.98-.27l.02,2.15c-1.81.19-2.96.25-5.52.25-2.79,0-3.29-.4-3.29-2.6v-3.52l-3.73.08c-.9.02-2.06.08-2.92.12l-.02-2.17q.33.02.6.02c.52,0,1.83,0,2.31-.02l3.75-.08v-1.75c0-.67,0-.85-.02-1.35l2.21.15c.25.02.4.08.4.21s-.1.25-.4.42v2.29l5.46-.12c.85-.02,2.1-.08,2.92-.15l.02,2.17h-2.89l-5.5.15v3.25Zm5.44-8.85c-.21-.02-.33-.02-.38-.02-.21,0-.94,0-2.12.02l-6.81.15c-.62.02-1.69.06-2.5.1l-.02-2.15c.73.02,2.04.02,2.48,0l6.83-.17c1.08-.02,1.79-.04,2.48-.1l.04,2.17Z"/><path class="cls-3" d="m156.79,107.84c-1.92.65-3.4.98-5.33,1.17q-.42.92-.65,1.33c-.1.17-.12.21-.19.33.62-.33,1.21-.48,1.87-.48,1.52,0,2.52.94,2.69,2.5,3.67-2.02,3.71-2.06,5.17-3l1.31,1.46c.1.12.17.25.17.35,0,.15-.1.23-.29.23-.1,0-.23,0-.37-.02q-1.25.69-3.69,1.96c-.75.4-1.98,1.04-2.27,1.21v3.67h-2.1v-2.5q-.12.08-.33.19c-1.19.67-1.79,1.4-1.79,2.19,0,.96.62,1.19,3.15,1.19,2.06,0,3.69-.15,5.75-.54-.15.98-.17,1.25-.21,2.25-2.75.31-3.46.35-5.33.35-2.67,0-3.69-.19-4.52-.81-.71-.52-1.06-1.27-1.06-2.27,0-1.33.58-2.35,1.9-3.31.65-.48.88-.6,1.98-1.19.25-.12.42-.23.48-.25v-.17c0-.6-.06-.94-.21-1.19-.19-.29-.54-.48-.96-.48-.88,0-1.87.58-2.75,1.58-.4.44-.9,1.15-1.65,2.31l-1.75-1.27q.31-.46,1.42-2c.5-.71,1.4-2.27,1.94-3.48-.42.02-.73.02-1.15.02-.81,0-1.27-.02-2.21-.08l-.04-1.98c1.04.08,1.58.1,2.25.1.27,0,1.44-.02,2.04-.04.58-1.46,1.08-2.98,1.23-3.69l2.12.54c.1.02.21.12.21.23,0,.12-.12.23-.4.33q-.19.46-.5,1.29-.19.48-.31.83c-.06.15-.06.17-.1.29,1.29-.19,2.39-.46,3.87-.94l.62,1.77Z"/><path class="cls-3" d="m165.62,116.11c1.75,1.65,2.67,2.71,4.08,4.69l-1.89,1.44c-1.17-1.83-2.46-3.44-3.81-4.71l1.62-1.42Z"/><path class="cls-3" d="m179.01,109.49c1.73.94,2.5,1.52,3.83,2.79l-1.56,1.85q-1.87-1.73-3.58-2.85l1.31-1.79Zm.29,9.27c2.29-1.02,4.94-2.65,7.31-4.54,2.44-1.92,4.42-3.92,6.25-6.25.54.75.73.98,1.56,1.81-4.1,4.79-6.46,6.75-12.96,10.79-.08.29-.19.44-.33.44-.1,0-.25-.1-.38-.27l-1.46-1.98Zm3.02-13.75c1.56.94,2.29,1.52,3.75,3.02l-1.54,1.73c-1.29-1.33-2.33-2.25-3.54-3.04l1.33-1.71Z"/><path class="cls-3" d="m198.96,106.4c2.17,1.12,2.96,1.71,4.39,3.29l-1.65,1.81c-1.5-1.67-2.58-2.54-4.12-3.37l1.38-1.73Zm-.79,11.75c3.14-1.33,4.94-2.35,7.31-4.14,2.77-2.12,4.39-3.77,6.54-6.69.42.73.77,1.19,1.44,1.98-2.75,3.31-4.29,4.83-6.73,6.67-2.04,1.54-3.58,2.48-6.54,3.98-.08.29-.17.44-.31.44-.1,0-.27-.1-.35-.25l-1.35-1.98Z"/><path class="cls-3" d="m229.02,106.36l1.79,1.46c.15.12.21.23.21.33,0,.17-.15.27-.52.4-.83,2.92-1.92,5.12-3.44,6.92-2,2.4-4.25,3.98-8.33,5.83-.44-.98-.81-1.48-1.5-1.96,4.14-1.75,6.27-3.17,8.14-5.44,1.19-1.42,2.29-3.54,2.67-5.06l-5.23.38c-2.81.17-4.87.31-5.89.42l-.23-2.31h.6c.38,0,.83-.02,1.71-.06.52-.02,1.12-.04,1.77-.06.96-.04,1.62-.08,2-.1l5.89-.33.35-.4Zm4.87-1.48c0,1.17-.96,2.12-2.12,2.12s-2.15-.96-2.15-2.12.96-2.12,2.15-2.12,2.12.94,2.12,2.12Zm-3.25,0c0,.62.5,1.1,1.12,1.1s1.1-.48,1.1-1.1-.5-1.12-1.1-1.12-1.12.5-1.12,1.12Z"/><path class="cls-3" d="m242.39,108.3c.12.02.25.12.25.23,0,.12-.1.23-.38.38-.38,3.62-.73,4.98-1.71,6.54-1.06,1.71-2.19,2.73-4.75,4.29-.27-.73-.71-1.35-1.38-2,2.04-1.19,2.9-1.88,3.79-3.04,1.19-1.58,1.71-3.62,1.71-6.54v-.1l2.46.25Zm1.44,9.06c.19-.67.23-1.5.23-3.87v-3.65c0-1.6-.02-2.5-.06-3.12l2.39.15c.25.02.38.08.38.23,0,.1-.1.21-.4.4q-.02.33-.04,2.35v5.89c2.96-1.44,4.58-2.62,7.02-5.12.38,1.08.52,1.44.85,2.23-2.79,2.58-4.6,3.79-8.06,5.46-.1.27-.21.4-.33.4-.08,0-.21-.04-.31-.12l-1.67-1.21Z"/><path class="cls-3" d="m259.9,105.55c.23.06.38.19.38.35,0,.23-.15.35-.56.5-.79,4.4-.9,5.42-.9,7.87s.27,4.15,1.04,6.23c-.9.27-1.42.46-2.12.79-.73-2-1.06-4.21-1.06-7.02,0-2.25.15-3.75.81-7.98.08-.5.12-.73.15-1.19l2.27.44Zm4.77,8.79c-.58.77-.75,1.17-.75,1.62,0,1.08,1.23,1.54,4.15,1.54,1.94,0,3.29-.17,4.94-.58-.17,1-.25,1.69-.27,2.46-1.35.21-2.96.31-4.52.31-1.79,0-3.21-.15-4.12-.46-1.5-.5-2.25-1.48-2.25-2.94,0-.98.29-1.67,1.23-2.94l1.6.98Zm-2.35-6.54c2.46-.65,4.08-.85,6.39-.85,1.29,0,2.23.06,3.6.23l-.33,2.04c-.38-.02-.67-.04-.85-.06-1.29-.1-1.9-.12-3.04-.12-2.04,0-3.12.17-5.31.85l-.46-2.08Z"/><path class="cls-3" d="m281.52,119.07c0,1.77-1.42,3.19-3.17,3.19s-3.19-1.42-3.19-3.19,1.42-3.17,3.19-3.17,3.17,1.42,3.17,3.17Zm-4.85,0c0,.94.75,1.69,1.69,1.69s1.67-.75,1.67-1.69-.75-1.67-1.67-1.67-1.69.75-1.69,1.67Z"/><path class="cls-3" d="m293.2,107.17c1.77,0,4.77-.08,6.31-.17l3.81-.23.31-.38,1.58,1.44c.17.17.21.21.21.33s-.08.19-.25.23l-.25.06c-1.75,2.94-1.83,3.04-2.98,4.46.06.04.19.12.29.21,1.83,1.42,2.06,1.6,3.17,2.75.9.92,1.31,1.42,2.08,2.48l-1.81,1.6c-1.42-2.02-2.31-3.08-3.35-4q-1.5-1.29-1.77-1.5c-2.23,2.35-4.6,3.98-8.16,5.58-.5-1.04-.67-1.31-1.21-1.98,4.1-1.79,6.17-3.21,8.6-5.92.96-1.06,1.65-1.98,2.21-2.9q.17-.25.27-.44l-2.62.25c-.19.02-.92.06-1.98.12-1,.06-3.31.23-4.27.31l-.19-2.33Z"/><path class="cls-3" d="m325.76,107.24l1.79,1.44c.21.17.27.25.27.35,0,.17-.06.21-.54.4-1.65,2-1.92,2.29-3.54,3.87-1.27,1.25-1.67,1.6-2.77,2.52.71.62,1.19,1.08,2.25,2.14l-1.88,1.65c-1.29-1.48-2.21-2.37-3.5-3.44-.77-.62-1.23-.94-3.12-2.15l1.27-1.67c1.56.83,2.31,1.29,3.31,2.08,2.62-2.21,3.65-3.21,4.85-4.69l-7.69.5c-.73.04-4.27.33-5.62.46l-.27-2.29c1.21-.02,3.77-.12,5.73-.23l9.04-.48.42-.48Z"/><path class="cls-3" d="m346.23,113.76c-.98-.02-2.62-.06-3.73-.06h-8.73c-1.02,0-2.83.04-3.73.06v-2.23c.85.02,2.67.06,3.73.06h8.73c1.15,0,2.79-.02,3.73-.06v2.23Z"/><path class="cls-3" d="m353.75,110.17c2.79,1.02,4.46,1.85,6.52,3.19l-1.31,1.98c-1.6-1.21-3.21-2.1-5.21-2.92v4.44c0,1.96.02,3.19.04,4.25h-2.48c.12-1.02.19-2.37.19-4.25v-8.33c0-2.38-.02-3.69-.08-4.33l2.44.15c.21,0,.33.08.33.21s-.12.25-.4.4c-.04,1.38-.04,1.62-.04,3.58v1.65Z"/><path class="cls-3" d="m367.62,105.55c.23.06.38.19.38.35,0,.23-.15.35-.56.5-.79,4.4-.9,5.42-.9,7.87s.27,4.15,1.04,6.23c-.9.27-1.42.46-2.12.79-.73-2-1.06-4.21-1.06-7.02,0-2.25.15-3.75.81-7.98.08-.5.12-.73.15-1.19l2.27.44Zm4.77,8.79c-.58.77-.75,1.17-.75,1.62,0,1.08,1.23,1.54,4.15,1.54,1.94,0,3.29-.17,4.94-.58-.17,1-.25,1.69-.27,2.46-1.35.21-2.96.31-4.52.31-1.79,0-3.21-.15-4.12-.46-1.5-.5-2.25-1.48-2.25-2.94,0-.98.29-1.67,1.23-2.94l1.6.98Zm-2.35-6.54c2.46-.65,4.08-.85,6.39-.85,1.29,0,2.23.06,3.6.23l-.33,2.04c-.38-.02-.67-.04-.85-.06-1.29-.1-1.9-.12-3.04-.12-2.04,0-3.12.17-5.31.85l-.46-2.08Z"/><path class="cls-3" d="m389.24,119.07c0,1.77-1.42,3.19-3.17,3.19s-3.19-1.42-3.19-3.19,1.42-3.17,3.19-3.17,3.17,1.42,3.17,3.17Zm-4.85,0c0,.94.75,1.69,1.69,1.69s1.67-.75,1.67-1.69-.75-1.67-1.67-1.67-1.69.75-1.69,1.67Z"/><path class="cls-5" d="m72.31,90.19H17.87c-9.86,0-17.87-8.02-17.87-17.87V17.87C0,8.02,8.02,0,17.87,0h54.44C82.17,0,90.19,8.02,90.19,17.87v54.44c0,9.86-8.02,17.87-17.87,17.87ZM17.87,17.34c-.29,0-.53.24-.53.53v54.44c0,.29.24.53.53.53h54.44c.29,0,.53-.24.53-.53V17.87c0-.29-.24-.53-.53-.53H17.87Z"/><rect class="cls-6" x="8.67" y="8.67" width="72.84" height="72.84" rx="9.2" ry="9.2"/><path class="cls-3" d="m72.31,84.41H17.87c-6.67,0-12.09-5.42-12.09-12.09V17.87c0-6.67,5.42-12.09,12.09-12.09h54.44c6.67,0,12.09,5.42,12.09,12.09v54.44c0,6.67-5.42,12.09-12.09,12.09ZM17.87,11.56c-3.48,0-6.31,2.83-6.31,6.31v54.44c0,3.48,2.83,6.31,6.31,6.31h54.44c3.48,0,6.31-2.83,6.31-6.31V17.87c0-3.48-2.83-6.31-6.31-6.31H17.87Z"/><line class="cls-7" x1="20.72" y1="20.81" x2="53.49" y2="20.81"/><line class="cls-7" x1="20.72" y1="31.74" x2="53.49" y2="31.74"/><line class="cls-7" x1="20.72" y1="42.66" x2="53.49" y2="42.66"/><line class="cls-7" x1="20.72" y1="53.59" x2="53.49" y2="53.59"/><line class="cls-7" x1="20.72" y1="64.51" x2="39.89" y2="64.51"/><path class="cls-1" d="m45.19,67.32c-.09,0-.17,0-.26-.01-.98-.08-1.87-.62-2.39-1.46-2.56-4.09-3.3-8.97-2.06-13.74,1.42-5.47,5.33-10.43,10.47-13.26.8-.44,1.73-.5,2.55-.21.49-.81.92-1.6,1.19-2.28.35-.88,1.08-1.56,1.99-1.84.91-.28,1.9-.13,2.68.41.47.32,1.05.8,1.59,1.45.11-.18.22-.38.34-.58.27-.46.54-.91.78-1.3-.91-2.02-2.13-3.29-4.06-4.34-1.08-.58-1.72-1.74-1.63-2.96,0-.07.01-.14.02-.21-.59-.96-1.82-2.59-2.77-3.85-2.64-3.51-5.64-7.48-6.74-10.91-.35-1.1-.07-2.31.74-3.14.42-.43.95-.72,1.52-.86-.55-.36-1.16-.73-1.82-1.11-1.14-.66-1.75-1.96-1.52-3.26.23-1.3,1.25-2.31,2.54-2.53,3.36-.58,6.05-.62,8.44-.11.62-.8,1.61-1.28,2.67-1.22,7.31.44,14.01,3.76,18.87,9.36,3.03,3.49,5.18,7.65,6.35,12.14.78.07,1.52.43,2.05,1.03,2.11,2.36,2.14,7.48,1.8,11.37-.47,5.33-2.04,11.78-5.05,16.42.12.72,0,1.65-.76,2.7-.21.29-.5.66-.92,1.18-6.79,8.8-17.31,9.38-26.59,9.89-1.17.06-2.37.13-3.53.21-2,.14-2.94.58-4.17,1.97-.6.67-1.45,1.05-2.34,1.05Zm4.1-19.05c-1.3,1.62-2.26,3.47-2.76,5.41-.38,1.46-.61,3.43-.09,5.58,1.39-.69,2.94-1.07,4.82-1.2,1.2-.08,2.43-.15,3.62-.22,7.74-.42,15.09-.83,20.17-5.48-.23-1.14.19-2.34,1.14-3.08,2.42-1.9,4.51-6.4,5.58-12.03.36-1.88.55-3.59.63-5.07-.17,0-.35-.03-.53-.07-1.42-.31-2.44-1.57-2.45-3.02-.05-5.82-2.11-11.37-5.8-15.62-1.73-1.99-3.76-3.61-5.99-4.81.27,1.24-.24,2.54-1.32,3.26-1.17.78-2.72.68-3.79-.24-1.23-1.07-2.28-1.94-3.27-2.62.6,1.11.91,2.44.31,3.84-.38.88-1.36,2.26-3.86,2.48.97,1.4,2.02,2.79,2.93,4,2.12,2.82,3.54,4.7,4.06,6.32,2.75,1.91,4.58,4.47,5.82,8.07.31.88.2,1.85-.29,2.65-1.08,1.78-2.37,3.94-2.76,4.67-.33.99-1.14,1.76-2.14,2.04-.21.4-.43.81-.64,1.21-.64,1.22-1.24,2.37-1.75,3.24-.33.56-.61.98-.86,1.3-1.42,1.79-3.07,1.55-3.71,1.36-.49-.14-1.83-.67-2.25-2.36-.72.58-1.48.99-2.28,1.09-.92.12-1.84-.14-2.54-.7Zm15.84-9.82s.03.04.04.06c-.01-.02-.02-.04-.04-.06h0Z"/><path class="cls-1" d="m70.19,37.03c-1.41,0-2.66-.95-3.02-2.34-.12-.18-.65-.82-2.41-1.93-1.43-.9-3.07-1.74-4.26-2.35-.58-.29-1.03-.53-1.39-.73-.28-.15-.48-.28-.66-.41-1.46-1.06-1.59-2.62-1.25-3.64.09-.27.95-2.59,3.88-2.09.03,0,.06.01.08.02,9.22,1.83,11.69,6.43,12.13,9.96.21,1.67-.94,3.21-2.6,3.48-.17.03-.34.04-.51.04Zm-3.06-2.52s0,0,0,0c0,0,0,0,0,0Z"/><path class="cls-1" d="m53.34,52.61c-.81,0-1.61-.32-2.21-.91-.51-.24-.96-.62-1.29-1.11-.72-1.09-.68-2.52.09-3.58l.11-.15c2.11-2.86,4.3-5.82,5.15-8.96.28-1.05,1.09-1.87,2.14-2.18,1.04-.31,2.17-.05,2.98.68,1.55,1.4,1.63,3.76,1.43,5.49-.19,1.64-1.25,7.22-6.89,10.33-.48.26-.99.39-1.51.39Z"/><path class="cls-1" d="m66.46,60.62c-1.75,0-3.55-.32-5.37-.96-1.28-.45-2.12-1.67-2.09-3.03s.94-2.53,2.24-2.92c3.63-1.08,10.24-3.79,13.73-9.86.74-1.28,2.27-1.87,3.68-1.42,1.41.46,2.3,1.84,2.14,3.32-.62,5.66-3.29,10.35-7.3,12.88-2.1,1.32-4.5,1.99-7.03,1.99Z"/><path class="cls-1" d="m43.99,57.91c-.29,0-.59-.04-.88-.13-1.39-.41-2.31-1.71-2.24-3.16.36-7.22,6.6-12.85,8.5-14.41,1.17-.95,2.85-.94,4,.03s1.44,2.63.69,3.94c-.38.66-.68,1.27-.92,1.86.44.72.72,1.82.14,3.39-.22.6-.55,1.23-.9,1.75-.56.82-1.43,1.47-2.53,2.3-1.05.78-2.63,1.96-3.14,2.86-.57.99-1.61,1.57-2.71,1.57Z"/><path class="cls-3" d="m45.19,65.79s-.09,0-.13,0c-.5-.04-.95-.32-1.22-.74-2.37-3.79-3.02-8.12-1.88-12.55,1.31-5.07,4.95-9.67,9.73-12.3.6-.33,1.35-.24,1.85.22.14.13.25.28.34.44.9-1.31,1.77-2.75,2.24-3.94.18-.45.55-.8,1.02-.94.46-.14.97-.06,1.37.21.72.49,1.53,1.25,2.01,2.36.32-.32.76-.48,1.21-.45.24-.41.53-.92.89-1.52.43-.73.87-1.46,1.17-1.96-1.08-2.77-2.58-4.48-5.04-5.81-.55-.3-.88-.89-.83-1.51.01-.19.06-.37.13-.54-.48-.96-2.02-3-3.19-4.55-2.57-3.41-5.48-7.27-6.5-10.46-.18-.56-.03-1.18.38-1.6.41-.42,1.03-.58,1.6-.41,2.22.66,3.55.87,4.31.93-.81-.95-2.7-2.65-6.54-4.87-.58-.34-.89-1-.77-1.66.12-.66.64-1.18,1.3-1.29,3.84-.67,6.63-.57,9.07.19,0-.11.03-.23.06-.34.21-.72.88-1.2,1.63-1.15,6.89.41,13.22,3.55,17.81,8.84,3.18,3.66,5.35,8.12,6.35,12.92.14-.09.29-.16.45-.2.59-.16,1.22.02,1.62.47,1.9,2.13,1.62,7.85,1.41,10.21-.33,3.68-1.15,7.45-2.31,10.62-.82,2.24-1.79,4.14-2.88,5.69.25.47.32,1.15-.33,2.05-.19.26-.48.63-.88,1.13-2.87,3.72-6.73,6.21-11.82,7.6-4.37,1.2-9.09,1.45-13.66,1.7-1.17.06-2.38.13-3.55.21-2.39.17-3.71.79-5.21,2.48-.3.34-.74.54-1.19.54Zm4.35-20.06c-2.17,2.11-3.76,4.75-4.49,7.57-.54,2.09-.81,5.1.57,8.29,1.59-1.24,3.35-1.84,5.76-2,1.19-.08,2.41-.15,3.6-.21,4.4-.24,8.94-.49,12.99-1.6,3.75-1.03,6.63-2.65,8.91-5.04-.07-.09-.13-.19-.19-.3-.33-.68-.14-1.49.45-1.95,1.78-1.39,3.36-3.88,4.58-7.2,1.07-2.92,1.83-6.4,2.13-9.8.13-1.44.16-2.67.13-3.7-.33.64-1.05.98-1.76.83-.73-.16-1.24-.8-1.25-1.54-.06-6.18-2.25-12.08-6.18-16.6-2.79-3.22-6.31-5.52-10.22-6.76.65.94,1.16,1.98,1.54,3.11.23.68-.03,1.43-.63,1.83-.6.4-1.39.35-1.93-.12-3.67-3.18-5.99-4.82-9.86-4.93.9.66,1.7,1.3,2.36,1.92.8.75,1.4,1.45,1.77,2.08.73,1.22.6,2.14.36,2.69-.73,1.71-2.89,1.82-5.4,1.36,1.28,2.17,3.09,4.58,4.65,6.65,2.45,3.25,3.73,5,3.93,6.34,2.73,1.76,4.52,4.16,5.72,7.63.16.45.1.95-.15,1.35-1.18,1.93-2.55,4.25-2.87,4.89-.18.69-.81,1.2-1.55,1.2,0,0-.01,0-.02,0-.04,0-.09,0-.13,0-.34.63-.68,1.28-1.02,1.92-.63,1.2-1.22,2.33-1.72,3.17-.59,1-1.4,2.38-2.83,1.97-.65-.19-1.39-.75-1.26-2.38.02-.28.11-.54.27-.77.99-1.46,1.6-2.7,1.85-3.79.09-.37.15-.76.14-1.15-.58.98-1.27,2.03-2.03,3.05-2.62,3.53-3.67,3.67-4.12,3.72-.67.09-1.31-.18-1.71-.71-.22-.29-.35-.61-.38-1.01Zm9.4-19.82s0,0,0,0c0,0,0,0,0,0Z"/><path class="cls-3" d="m70.19,35.5c-.75,0-1.41-.53-1.56-1.29-.02-.09-.23-.88-2.59-2.45-1.59-1.06-3.47-2.02-4.84-2.72-.54-.28-1.01-.51-1.34-.7-.22-.12-.38-.22-.51-.32-.79-.57-.87-1.37-.69-1.92.14-.41.62-1.33,2.17-1.07.01,0,.03,0,.04,0,2.7.53,4.93,1.34,6.64,2.41,2.51,1.56,3.95,3.66,4.28,6.24.11.85-.48,1.64-1.33,1.78-.09.01-.17.02-.26.02Z"/><path class="cls-3" d="m53.34,51.08c-.45,0-.89-.19-1.2-.55-.04-.04-.07-.09-.1-.13-.37-.1-.7-.33-.91-.66-.37-.56-.35-1.29.05-1.83l.11-.15c2.2-2.98,4.47-6.05,5.39-9.47.15-.54.56-.96,1.09-1.11.53-.16,1.11-.02,1.52.35,1.12,1.01,1.07,3.05.94,4.18-.17,1.45-1.11,6.41-6.11,9.17-.24.13-.51.2-.77.2Zm3.64-11.38h0s0,0,0,0Z"/><path class="cls-3" d="m66.48,59.11c-1.57,0-3.21-.29-4.88-.89-.65-.23-1.08-.85-1.07-1.55s.48-1.29,1.14-1.49c6.65-1.97,11.84-5.72,14.62-10.57.38-.66,1.16-.96,1.88-.72.72.23,1.17.94,1.09,1.69-.57,5.19-2.98,9.47-6.6,11.75-1.87,1.18-3.96,1.77-6.19,1.77Zm6-5.67c-.95.7-1.97,1.35-3.05,1.95.53-.2,1.05-.45,1.54-.76.54-.34,1.04-.74,1.51-1.2Z"/><path class="cls-3" d="m43.99,56.38c-.15,0-.3-.02-.45-.06-.71-.21-1.18-.87-1.14-1.61.12-2.45,1.03-4.99,2.71-7.54,1.72-2.63,3.8-4.58,5.23-5.76.6-.49,1.45-.48,2.04.02.59.5.74,1.34.35,2.01-.6,1.05-1.04,2.02-1.33,2.94,1.48,1.11.15,3.3-.29,3.95-.42.61-1.16,1.17-2.19,1.93-1.22.91-2.88,2.15-3.55,3.32-.29.51-.82.8-1.38.8Zm3.83-7.54c-.11.16-.21.32-.31.49.12-.09.25-.19.36-.28-.02-.07-.04-.14-.05-.21Z"/><path class="cls-4" d="m84.41,24.62c-.35,1.88-1.06,2.75-1.86,4.43-.12-13.28-9.64-25.11-23.27-25.93,2.35,1.29,4.31,3.25,5.29,6.19-5.22-4.53-8.21-6.19-15.68-4.9,8.7,5.02,11.72,10.06.98,6.86,1.88,5.85,11.61,15.39,9.63,16.14,3.1,1.67,4.85,3.93,6.05,7.38,0,0-3.25,5.32-3.06,5.32.03,0-.91-.07-.86-.42-2.21,3.93-4.74,9.56-4.52,6.82,1.33-1.96,4.07-6.54.49-9-1.79,4.52-9.53,13.81-5.14,4.08-7.9,4.36-12.37,14.46-7.27,22.6,1.74-1.96,3.41-2.81,6.29-3.01,10.06-.7,21.18-.2,27.88-8.91,2.12-2.66.67-.98-1.24-.53,7.29-5.72,8.88-24.23,6.29-27.12Z"/><path class="cls-2" d="m61.96,24.21c3.5,2.12,7.6,5.57,6.57,10.14.54-3.53-8.9-11.47-6.57-10.14Z"/><path class="cls-2" d="m53.34,49.49c1.94-2.63.74-1-.89-.62,2.31-3.14,4.74-6.39,5.76-10.15,1.08.98.65,7.72-4.87,10.77Z"/><path class="cls-2" d="m77.68,45.42c-.93,8.4-7.07,14.29-15.56,11.3,6.23-1.85,12.25-5.55,15.56-11.3Z"/><path class="cls-2" d="m51.35,42.64c-1.05,1.84-1.86,3.8-1.95,5.94,1.67-2.11,1.1-.18.4.84-.7,1.03-4.45,3.01-5.81,5.36.24-4.68,3.84-9.27,7.36-12.14Z"/></g></svg>